<?xml version="1.0" encoding="utf-8"?>
<!-- Generator: Adobe Illustrator 27.6.1, SVG Export Plug-In . SVG Version: 6.00 Build 0)  -->
<svg version="1.1" id="Layer_1" xmlns="http://www.w3.org/2000/svg" xmlns:xlink="http://www.w3.org/1999/xlink" x="0px" y="0px"
	 viewBox="0 0 21 22" style="enable-background:new 0 0 21 22;" xml:space="preserve">
<style type="text/css">
	.st0{fill:#4999D3;}
	.st1{fill:#F79220;}
	.st2{fill:#0E76BC;}
</style>
<g>
	<g>
		<path class="st0" d="M8.7,15.8c-0.5-1-0.9-2.1-1.4-3.1C5.9,9.9,4.6,9.3,1.8,9.8C1.2,9.9,0.6,9.9,0,9.9C1.7,9,3.4,8.1,5.3,8.4
			C5.9,8.5,6.4,9,6.8,9.5C7.9,11.4,8.4,13.6,8.7,15.8z"/>
		<path class="st1" d="M12.3,15.8c0.5-1,0.9-2.1,1.4-3.1c1.4-2.7,2.6-3.4,5.4-2.9c0.6,0.1,1.2,0.2,1.8,0.2c-1.7-0.9-3.4-1.8-5.3-1.5
			c-0.6,0.1-1.1,0.5-1.4,1.1C13.1,11.4,12.6,13.6,12.3,15.8z"/>
	</g>
	<g>
		<path class="st2" d="M9.2,13.8c0.5-2.9,0.4-5.4-3.1-6.2C7.4,7.3,9.4,8,9.9,8.9C10.8,10.6,9.8,12.2,9.2,13.8z"/>
		<path class="st2" d="M11.8,13.8c-0.5-2.9-0.4-5.4,3.1-6.2c-1.3-0.3-3.3,0.3-3.8,1.3C10.2,10.6,11.2,12.2,11.8,13.8z"/>
	</g>
	<ellipse class="st2" cx="10.5" cy="7.1" rx="0.8" ry="0.9"/>
</g>
</svg>
